<svg width="27" height="28" viewBox="0 0 27 28" fill="none" xmlns="http://www.w3.org/2000/svg">
<path d="M21.375 19.6563V21.9063H7.875V19.6563C7.875 19.6563 7.875 15.1563 14.625 15.1563C21.375 15.1563 21.375 19.6563 21.375 19.6563ZM18 9.53125C18 8.86374 17.8021 8.21122 17.4312 7.6562C17.0604 7.10119 16.5333 6.6686 15.9166 6.41316C15.2999 6.15771 14.6213 6.09088 13.9666 6.2211C13.3119 6.35133 12.7105 6.67276 12.2385 7.14477C11.7665 7.61677 11.4451 8.21814 11.3148 8.87282C11.1846 9.52751 11.2515 10.2061 11.5069 10.8228C11.7624 11.4395 12.1949 11.9666 12.75 12.3375C13.305 12.7083 13.9575 12.9063 14.625 12.9063C15.5201 12.9063 16.3786 12.5507 17.0115 11.9177C17.6444 11.2848 18 10.4264 18 9.53125ZM21.6 15.2238C22.215 15.7911 22.7107 16.4752 23.0584 17.2363C23.4061 17.9973 23.5987 18.82 23.625 19.6563V21.9063H27V19.6563C27 19.6563 27 15.775 21.6 15.2238M20.25 6.15625C19.9101 6.15645 19.5723 6.20959 19.2488 6.31375C19.9069 7.25759 20.2598 8.38058 20.2598 9.53125C20.2598 10.6819 19.9069 11.8049 19.2488 12.7488C19.5723 12.8529 19.9101 12.906 20.25 12.9063C21.1451 12.9063 22.0036 12.5507 22.6365 11.9177C23.2694 11.2848 23.625 10.4264 23.625 9.53125C23.625 8.63615 23.2694 7.7777 22.6365 7.14477C22.0036 6.51183 21.1451 6.15625 20.25 6.15625ZM9 11.7813H5.625V8.40625H3.375V11.7813H0V14.0313H3.375V17.4063H5.625V14.0313H9V11.7813Z" fill="black"/>
</svg>
