<svg width="24" height="25" viewBox="0 0 24 25" fill="none" xmlns="http://www.w3.org/2000/svg">
<path d="M19.8555 1.53125H21.5698C22.0244 1.53125 22.4604 1.71186 22.7819 2.03335C23.1034 2.35484 23.284 2.79088 23.284 3.24554V4.95982" stroke="#000001" stroke-width="1.5" stroke-linecap="round" stroke-linejoin="round"/>
<path d="M1 4.95982V3.24554C1 2.79088 1.18061 2.35484 1.5021 2.03335C1.82359 1.71186 2.25963 1.53125 2.71429 1.53125H4.42857" stroke="#000001" stroke-width="1.5" stroke-linecap="round" stroke-linejoin="round"/>
<path d="M9.57031 1.53125H14.7132" stroke="#000001" stroke-width="1.5" stroke-linecap="round" stroke-linejoin="round"/>
<path d="M23.2852 10.1016V14.8158" stroke="#000001" stroke-width="1.5" stroke-linecap="round" stroke-linejoin="round"/>
<path d="M1 10.1016V15.2444" stroke="#000001" stroke-width="1.5" stroke-linecap="round" stroke-linejoin="round"/>
<path d="M1 20.3906V22.1049C1 22.5596 1.18061 22.9956 1.5021 23.3171C1.82359 23.6386 2.25963 23.8192 2.71429 23.8192H4.42857" stroke="#000001" stroke-width="1.5" stroke-linecap="round" stroke-linejoin="round"/>
<path d="M9.57031 23.8203H14.2846" stroke="#000001" stroke-width="1.5" stroke-linecap="round" stroke-linejoin="round"/>
<path d="M13.8555 20.3906C17.1692 20.3906 19.8555 17.7043 19.8555 14.3906C19.8555 11.0769 17.1692 8.39062 13.8555 8.39062C10.5418 8.39062 7.85547 11.0769 7.85547 14.3906C7.85547 17.7043 10.5418 20.3906 13.8555 20.3906Z" stroke="#000001" stroke-width="1.5" stroke-linecap="round" stroke-linejoin="round"/>
<path d="M18.0898 18.625L22.427 22.9621" stroke="#000001" stroke-width="1.5" stroke-linecap="round" stroke-linejoin="round"/>
</svg>
