<svg width="24" height="25" viewBox="0 0 24 25" fill="none" xmlns="http://www.w3.org/2000/svg">
<path d="M5.18404 3.96722L5.52453 4.63548L5.52453 4.63548L5.18404 3.96722ZM3.43597 5.71529L2.76772 5.37479L2.76772 5.3748L3.43597 5.71529ZM18.816 21.0953L19.1565 21.7635L19.1565 21.7635L18.816 21.0953ZM20.564 19.3472L19.8958 19.0067L19.8958 19.0067L20.564 19.3472ZM5.18404 21.0953L5.52453 20.427L5.52453 20.427L5.18404 21.0953ZM3.43597 19.3472L4.10423 19.0067L4.10423 19.0067L3.43597 19.3472ZM21.75 12.5312C21.75 12.117 21.4142 11.7812 21 11.7812C20.5858 11.7812 20.25 12.117 20.25 12.5312H21.75ZM12 4.28125C12.4142 4.28125 12.75 3.94546 12.75 3.53125C12.75 3.11704 12.4142 2.78125 12 2.78125V4.28125ZM12.2532 11.0278L12.9647 11.265L12.9647 11.265L12.2532 11.0278ZM12.716 9.63946L12.0045 9.40229L12.0045 9.40229L12.716 9.63946ZM13.1935 8.8668L13.7239 9.39713L13.7239 9.39713L13.1935 8.8668ZM17.8054 4.25496L17.2751 3.72463L17.2751 3.72463L17.8054 4.25496ZM20.2763 6.72586L20.8066 7.25619L20.8066 7.25619L20.2763 6.72586ZM15.6644 11.3377L15.1341 10.8074L15.1341 10.8074L15.6644 11.3377ZM14.8918 11.8152L15.129 12.5267L15.129 12.5267L14.8918 11.8152ZM13.5034 12.278L13.7406 12.9895L13.7406 12.9895L13.5034 12.278ZM15.4112 11.5741L15.8628 12.1729L15.8628 12.1729L15.4112 11.5741ZM15.2165 11.6944L14.883 11.0227L14.883 11.0227L15.2165 11.6944ZM20.2763 4.25496L19.746 4.78529L19.746 4.78529L20.2763 4.25496ZM20.8715 4.94185L21.5436 4.60884L21.5436 4.60884L20.8715 4.94185ZM20.8715 6.03897L21.5436 6.37198L21.5436 6.37198L20.8715 6.03897ZM18.4923 3.65971L18.8253 4.33173L18.8253 4.33173L18.4923 3.65971ZM19.5894 3.65971L19.2564 4.33173L19.2564 4.33173L19.5894 3.65971ZM12.8368 9.31472L13.5086 9.64825L13.5086 9.64825L12.8368 9.31472ZM12.9571 9.1201L12.3584 8.66842L12.3584 8.66842L12.9571 9.1201ZM12.023 12.1339L12.7294 11.882L12.7294 11.882L12.023 12.1339ZM12.3974 12.5083L12.1454 13.2147L12.1454 13.2147L12.3974 12.5083ZM9.4 22.2812H14.6V20.7812H9.4V22.2812ZM2.25 9.93125V15.1313H3.75V9.93125H2.25ZM9.4 2.78125C8.29227 2.78125 7.41637 2.78067 6.71173 2.83824C5.99834 2.89652 5.39472 3.01813 4.84354 3.29897L5.52453 4.63548C5.829 4.48034 6.21325 4.38396 6.83388 4.33326C7.46326 4.28183 8.26752 4.28125 9.4 4.28125V2.78125ZM3.75 9.93125C3.75 8.79877 3.75058 7.99452 3.80201 7.36513C3.85271 6.7445 3.94909 6.36025 4.10423 6.05578L2.76772 5.3748C2.48688 5.92597 2.36527 6.5296 2.30699 7.24298C2.24942 7.94762 2.25 8.82352 2.25 9.93125H3.75ZM4.84355 3.29897C3.94977 3.75437 3.22312 4.48103 2.76772 5.37479L4.10423 6.05578C4.41582 5.44425 4.913 4.94707 5.52453 4.63548L4.84355 3.29897ZM14.6 22.2812C15.7077 22.2812 16.5836 22.2818 17.2883 22.2243C18.0017 22.166 18.6053 22.0444 19.1565 21.7635L18.4755 20.427C18.171 20.5822 17.7867 20.6785 17.1661 20.7292C16.5367 20.7807 15.7325 20.7812 14.6 20.7812V22.2812ZM20.25 15.1313C20.25 16.2637 20.2494 17.068 20.198 17.6974C20.1473 18.318 20.0509 18.7022 19.8958 19.0067L21.2323 19.6877C21.5131 19.1365 21.6347 18.5329 21.693 17.8195C21.7506 17.1149 21.75 16.239 21.75 15.1313H20.25ZM19.1565 21.7635C20.0502 21.3081 20.7769 20.5815 21.2323 19.6877L19.8958 19.0067C19.5842 19.6182 19.087 20.1154 18.4755 20.427L19.1565 21.7635ZM9.4 20.7812C8.26752 20.7812 7.46327 20.7807 6.83388 20.7292C6.21325 20.6785 5.829 20.5822 5.52453 20.427L4.84354 21.7635C5.39472 22.0444 5.99834 22.166 6.71173 22.2243C7.41637 22.2818 8.29227 22.2812 9.4 22.2812V20.7812ZM2.25 15.1313C2.25 16.239 2.24942 17.1149 2.30699 17.8195C2.36527 18.5329 2.48688 19.1365 2.76772 19.6877L4.10423 19.0067C3.94909 18.7022 3.85271 18.318 3.80201 17.6974C3.75058 17.068 3.75 16.2637 3.75 15.1313H2.25ZM5.52453 20.427C4.913 20.1154 4.41582 19.6182 4.10423 19.0067L2.76772 19.6877C3.22312 20.5815 3.94978 21.3081 4.84355 21.7635L5.52453 20.427ZM21.75 15.1313V12.5312H20.25V15.1313H21.75ZM9.4 4.28125H12V2.78125H9.4V4.28125ZM12.9647 11.265L13.4275 9.87663L12.0045 9.40229L11.5417 10.7907L12.9647 11.265ZM13.7239 9.39713L18.3357 4.78529L17.2751 3.72463L12.6632 8.33647L13.7239 9.39713ZM19.746 6.19553L15.1341 10.8074L16.1948 11.868L20.8066 7.25619L19.746 6.19553ZM14.6546 11.1037L13.2662 11.5665L13.7406 12.9895L15.129 12.5267L14.6546 11.1037ZM15.1341 10.8074C14.9969 10.9446 14.9769 10.9622 14.9595 10.9754L15.8628 12.1729C15.9828 12.0824 16.0859 11.9769 16.1948 11.868L15.1341 10.8074ZM15.129 12.5267C15.2751 12.478 15.4155 12.433 15.5501 12.3662L14.883 11.0227C14.8634 11.0324 14.8387 11.0424 14.6546 11.1037L15.129 12.5267ZM14.9595 10.9754C14.9355 10.9935 14.9099 11.0093 14.883 11.0227L15.5501 12.3662C15.6601 12.3115 15.7648 12.2468 15.8628 12.1729L14.9595 10.9754ZM19.746 4.78529C20.1256 5.16492 20.1779 5.23128 20.1995 5.27486L21.5436 4.60884C21.3851 4.28909 21.1006 4.01863 20.8066 3.72463L19.746 4.78529ZM20.8066 7.25619C21.1006 6.9622 21.3851 6.69174 21.5436 6.37198L20.1995 5.70596C20.1779 5.74954 20.1256 5.8159 19.746 6.19553L20.8066 7.25619ZM20.1995 5.27486C20.2668 5.41068 20.2668 5.57014 20.1995 5.70596L21.5436 6.37198C21.8188 5.8165 21.8188 5.16432 21.5436 4.60884L20.1995 5.27486ZM18.3357 4.78529C18.7153 4.40566 18.7817 4.35332 18.8253 4.33173L18.1593 2.9877C17.8395 3.14615 17.569 3.43064 17.2751 3.72463L18.3357 4.78529ZM20.8066 3.72463C20.5126 3.43064 20.2422 3.14615 19.9224 2.9877L19.2564 4.33173C19.3 4.35333 19.3663 4.40566 19.746 4.78529L20.8066 3.72463ZM18.8253 4.33173C18.9611 4.26442 19.1206 4.26442 19.2564 4.33173L19.9224 2.9877C19.3669 2.71243 18.7147 2.71243 18.1593 2.9877L18.8253 4.33173ZM13.4275 9.87663C13.4889 9.69255 13.4989 9.66784 13.5086 9.64825L12.1651 8.98119C12.0983 9.11577 12.0532 9.25618 12.0045 9.40229L13.4275 9.87663ZM12.6632 8.33647C12.5543 8.44537 12.4489 8.54847 12.3584 8.66842L13.5559 9.57178C13.569 9.55432 13.5867 9.53435 13.7239 9.39713L12.6632 8.33647ZM13.5086 9.64825C13.522 9.62135 13.5378 9.59575 13.5559 9.57178L12.3584 8.66842C12.2844 8.76647 12.2197 8.87118 12.1651 8.98119L13.5086 9.64825ZM11.5417 10.7907C11.4458 11.0783 11.3568 11.3431 11.3057 11.5604C11.2573 11.7665 11.2047 12.0721 11.3166 12.3858L12.7294 11.882C12.7697 11.995 12.7317 12.0494 12.7659 11.9035C12.7976 11.7688 12.8594 11.581 12.9647 11.265L11.5417 10.7907ZM13.2662 11.5665C12.9503 11.6718 12.7625 11.7337 12.6277 11.7653C12.4819 11.7996 12.5363 11.7615 12.6493 11.8018L12.1454 13.2147C12.4591 13.3265 12.7648 13.274 12.9709 13.2255C13.1881 13.1745 13.453 13.0854 13.7406 12.9895L13.2662 11.5665ZM11.3166 12.3858C11.4545 12.7725 11.7588 13.0768 12.1454 13.2147L12.6493 11.8018C12.6867 11.8152 12.7161 11.8446 12.7294 11.882L11.3166 12.3858Z" fill="black"/>
</svg>
