<svg width="24" height="25" viewBox="0 0 24 25" fill="none" xmlns="http://www.w3.org/2000/svg">
<path d="M17.9981 7.69125C17.9381 7.68125 17.8681 7.68125 17.8081 7.69125C16.4281 7.64125 15.3281 6.51125 15.3281 5.11125C15.3281 3.68125 16.4781 2.53125 17.9081 2.53125C19.3381 2.53125 20.4881 3.69125 20.4881 5.11125C20.4781 6.51125 19.3781 7.64125 17.9981 7.69125Z" stroke="black" stroke-width="1.5" stroke-linecap="round" stroke-linejoin="round"/>
<path d="M16.9675 14.9714C18.3375 15.2014 19.8475 14.9614 20.9075 14.2514C22.3175 13.3114 22.3175 11.7714 20.9075 10.8314C19.8375 10.1214 18.3075 9.88141 16.9375 10.1214" stroke="black" stroke-width="1.5" stroke-linecap="round" stroke-linejoin="round"/>
<path d="M5.97047 7.69125C6.03047 7.68125 6.10047 7.68125 6.16047 7.69125C7.54047 7.64125 8.64047 6.51125 8.64047 5.11125C8.64047 3.68125 7.49047 2.53125 6.06047 2.53125C4.63047 2.53125 3.48047 3.69125 3.48047 5.11125C3.49047 6.51125 4.59047 7.64125 5.97047 7.69125Z" stroke="black" stroke-width="1.5" stroke-linecap="round" stroke-linejoin="round"/>
<path d="M7.0014 14.9714C5.6314 15.2014 4.12141 14.9614 3.06141 14.2514C1.65141 13.3114 1.65141 11.7714 3.06141 10.8314C4.13141 10.1214 5.6614 9.88141 7.0314 10.1214" stroke="black" stroke-width="1.5" stroke-linecap="round" stroke-linejoin="round"/>
<path d="M11.9981 15.16C11.9381 15.15 11.8681 15.15 11.8081 15.16C10.4281 15.11 9.32812 13.98 9.32812 12.58C9.32812 11.15 10.4781 10 11.9081 10C13.3381 10 14.4881 11.16 14.4881 12.58C14.4781 13.98 13.3781 15.12 11.9981 15.16Z" stroke="black" stroke-width="1.5" stroke-linecap="round" stroke-linejoin="round"/>
<path d="M9.08875 18.3106C7.67875 19.2506 7.67875 20.7906 9.08875 21.7306C10.6888 22.8006 13.3087 22.8006 14.9087 21.7306C16.3187 20.7906 16.3187 19.2506 14.9087 18.3106C13.3187 17.2506 10.6888 17.2506 9.08875 18.3106Z" stroke="black" stroke-width="1.5" stroke-linecap="round" stroke-linejoin="round"/>
</svg>
