<svg width="24" height="25" viewBox="0 0 24 25" fill="none" xmlns="http://www.w3.org/2000/svg">
<path d="M8.98026 10.2864C9.6162 11.6109 10.4831 12.8523 11.581 13.9502C12.6789 15.0481 13.9203 15.915 15.2448 16.551C15.3588 16.6057 15.4157 16.633 15.4878 16.6541C15.744 16.7287 16.0585 16.6751 16.2755 16.5197C16.3365 16.476 16.3888 16.4238 16.4932 16.3194C16.8126 15.9999 16.9724 15.8402 17.133 15.7358C17.7387 15.342 18.5195 15.342 19.1252 15.7358C19.2858 15.8402 19.4455 15.9999 19.765 16.3194L19.943 16.4974C20.4286 16.983 20.6714 17.2258 20.8033 17.4865C21.0656 18.0051 21.0656 18.6176 20.8033 19.1362C20.6714 19.3969 20.4286 19.6397 19.943 20.1253L19.799 20.2693C19.3151 20.7532 19.0731 20.9952 18.7441 21.18C18.3791 21.3851 17.8121 21.5325 17.3935 21.5312C17.0162 21.5301 16.7583 21.4569 16.2425 21.3105C13.4709 20.5239 10.8555 19.0396 8.6736 16.8576C6.49168 14.6757 5.00738 12.0604 4.22071 9.28871C4.07432 8.77297 4.00113 8.5151 4.00001 8.13778C3.99876 7.7191 4.1462 7.15215 4.35126 6.78712C4.53605 6.45816 4.77801 6.21619 5.26193 5.73227L5.40597 5.58824C5.89155 5.10266 6.13434 4.85986 6.3951 4.72797C6.91369 4.46568 7.52611 4.46568 8.0447 4.72797C8.30546 4.85986 8.54825 5.10265 9.03383 5.58824L9.21189 5.76629C9.53133 6.08573 9.69104 6.24545 9.79547 6.40606C10.1893 7.01175 10.1893 7.79259 9.79547 8.39828C9.69105 8.55889 9.53133 8.71861 9.21189 9.03805C9.10744 9.1425 9.05521 9.19472 9.0115 9.25577C8.85616 9.47271 8.80252 9.78726 8.8772 10.0434C8.89821 10.1155 8.92556 10.1725 8.98026 10.2864Z" stroke="black" stroke-width="1.5" stroke-linecap="round" stroke-linejoin="round"/>
</svg>
