<svg width="19" height="20" viewBox="0 0 19 20" fill="none" xmlns="http://www.w3.org/2000/svg">
<path d="M9.59401 10.6464C9.53859 10.6384 9.46734 10.6384 9.40401 10.6464C8.01068 10.5989 6.90234 9.45885 6.90234 8.0576C6.90234 6.62469 8.05818 5.46094 9.49901 5.46094C10.9319 5.46094 12.0957 6.62469 12.0957 8.0576C12.0878 9.45885 10.9873 10.5989 9.59401 10.6464Z" stroke="black" stroke-width="1.1875" stroke-linecap="round" stroke-linejoin="round"/>
<path d="M14.8357 15.8731C13.4266 17.1635 11.5582 17.9473 9.4999 17.9473C7.44156 17.9473 5.57323 17.1635 4.16406 15.8731C4.24323 15.129 4.71823 14.4006 5.56531 13.8306C7.73448 12.3898 11.2811 12.3898 13.4345 13.8306C14.2816 14.4006 14.7566 15.129 14.8357 15.8731Z" stroke="black" stroke-width="1.1875" stroke-linecap="round" stroke-linejoin="round"/>
<path d="M9.4987 17.9505C13.871 17.9505 17.4154 14.4061 17.4154 10.0339C17.4154 5.6616 13.871 2.11719 9.4987 2.11719C5.12644 2.11719 1.58203 5.6616 1.58203 10.0339C1.58203 14.4061 5.12644 17.9505 9.4987 17.9505Z" stroke="black" stroke-width="1.1875" stroke-linecap="round" stroke-linejoin="round"/>
</svg>
