<svg width="24" height="25" viewBox="0 0 24 25" fill="none" xmlns="http://www.w3.org/2000/svg">
<path d="M3 5.53125L10.7721 11.5762C11.4943 12.138 12.5057 12.138 13.2279 11.5762L21 5.53125M5.2 20.5312H18.8C19.9201 20.5312 20.4802 20.5312 20.908 20.3133C21.2843 20.1215 21.5903 19.8156 21.782 19.4392C22 19.0114 22 18.4514 22 17.3313V7.73125C22 6.61115 22 6.05109 21.782 5.62327C21.5903 5.24694 21.2843 4.94098 20.908 4.74924C20.4802 4.53125 19.9201 4.53125 18.8 4.53125H5.2C4.07989 4.53125 3.51984 4.53125 3.09202 4.74924C2.71569 4.94098 2.40973 5.24694 2.21799 5.62327C2 6.05109 2 6.61114 2 7.73125V17.3313C2 18.4514 2 19.0114 2.21799 19.4392C2.40973 19.8156 2.71569 20.1215 3.09202 20.3133C3.51984 20.5312 4.0799 20.5312 5.2 20.5312Z" stroke="black" stroke-width="1.5"/>
</svg>
