<svg width="20" height="19" viewBox="0 0 20 19" fill="none" xmlns="http://www.w3.org/2000/svg">
<path d="M1.62476 2.15619H2.37476M1.62476 2.90619H2.37476M8 2.53125H19M1.62476 9.15619H2.37476M1.62476 9.90619H2.37476M1.62476 16.1562H2.37476M1.62476 16.9062H2.37476M8 9.53125H19M8 16.5312H19M3 2.53125C3 3.08353 2.55228 3.53125 2 3.53125C1.44772 3.53125 1 3.08353 1 2.53125C1 1.97897 1.44772 1.53125 2 1.53125C2.55228 1.53125 3 1.97897 3 2.53125ZM3 9.53125C3 10.0835 2.55228 10.5312 2 10.5312C1.44772 10.5312 1 10.0835 1 9.53125C1 8.97897 1.44772 8.53125 2 8.53125C2.55228 8.53125 3 8.97897 3 9.53125ZM3 16.5312C3 17.0835 2.55228 17.5312 2 17.5312C1.44772 17.5312 1 17.0835 1 16.5312C1 15.979 1.44772 15.5312 2 15.5312C2.55228 15.5312 3 15.979 3 16.5312Z" stroke="black" stroke-width="1.5" stroke-linecap="round"/>
</svg>
